<?xml version="1.0" encoding="UTF-8"?>
<!DOCTYPE svg PUBLIC "-//W3C//DTD SVG 1.1//EN" "http://www.w3.org/Graphics/SVG/1.1/DTD/svg11.dtd">
<!-- Creator: CorelDRAW 2020 (64 Bit) -->
<svg xmlns="http://www.w3.org/2000/svg" xml:space="preserve" width="50mm" height="47.3048mm" version="1.1" style="shape-rendering:geometricPrecision; text-rendering:geometricPrecision; image-rendering:optimizeQuality; fill-rule:evenodd; clip-rule:evenodd"
viewBox="0 0 3976.28 3761.94"
 xmlns:xlink="http://www.w3.org/1999/xlink"
 xmlns:xodm="http://www.corel.com/coreldraw/odm/2003">
 <defs>
  <style type="text/css">
   <![CDATA[
    .fil0 {fill:black}
   ]]>
  </style>
 </defs>
 <g id="Camada_x0020_1">
  <metadata id="CorelCorpID_0Corel-Layer"/>
  <g id="_1768515513616">
   <path class="fil0" d="M985.64 243.83c-75.21,-50.36 -156.67,-154.06 -278.67,-164.21 -12.43,53.37 -9.95,133.95 -9.95,194.07 0,27.63 4.97,29.51 4.97,54.74 -51.28,27.13 -118.54,94.34 -151.39,142.2 -18.23,26.55 -22.77,34.31 -22.77,76.75l-279.36 108.78c-31.75,12.92 -58.67,27.64 -88.28,41.1 -49.87,22.69 -122.06,57.82 -153.83,105.17 -31.56,47.05 62.9,117.02 95.68,140.9 16.64,12.12 16.58,19.77 29.21,35.48 10.61,13.21 17.8,23.32 29.5,35.19 22.02,22.33 43.92,40.96 69.84,59.54 210.09,150.6 516.57,45.92 491.89,145.64 -19.88,80.36 -35.41,6.12 -35.41,169.17 0,119.81 26.41,143.27 -1.04,262.69 -36.04,156.77 -37.49,352.03 -0.06,504.74 40.92,166.96 40.91,179.22 40.91,352.2 0,118.97 -11.4,228.72 -32.68,345.51 -13.74,75.45 -26.94,162.77 -45.93,237.71 -28.88,113.93 -60.07,271.48 -124.51,358.17 -25.1,33.76 -165.11,101.85 -165.11,218.05 0,52.02 52.64,44.8 104.5,44.78l462.78 0c3.76,-14.09 14.5,-24.35 23.44,-36.28 83.41,-111.25 105.81,-75.35 142.02,-101.81 11.89,-8.69 18.37,-24.53 25.41,-39.28 14.52,-30.45 21.39,-61.38 27.45,-96.95 9.13,-53.59 10.34,-115.94 10.42,-173.7 0.04,-28.8 4.58,-33.93 5.3,-59.38 4.18,-146.15 19.77,-301.53 -0.38,-447.79 -8.9,-64.65 -37.77,-141.46 -6.41,-205.89 8.67,-17.81 22.02,-23.49 36.49,-33.18 -5.32,-63.96 -59.97,-119.43 -139.33,-119.43 -67.3,0 -100.15,87.27 -177.07,-12.02 -77.82,-100.45 -48.53,-88.07 -9.73,-135.11 18.67,-22.63 6.86,-53.88 -1.64,-77.47 -23.28,-64.59 8.8,-106.17 45.36,-142.41 9.28,-9.2 15.39,-16.25 24.84,-24.93 35.58,-32.72 29.55,-12.09 32.3,-57.22 1.24,-20.38 2.19,-33.64 6.09,-48.69 13.85,-53.29 41.03,-96 69.9,-139.1 20.92,10.04 33.11,4.77 39.8,29.85 35.88,-24.02 95.82,-237.05 200.52,3.51 60.56,139.15 -7.03,93.93 76.54,132.45 244.74,112.81 397.52,375.01 419.6,640.32 102.28,8.51 248.91,77.84 329.86,137.89 23.28,17.27 41.77,38.15 58.03,61.39 3.37,4.81 3.55,6.61 8.42,11.48 7.72,7.75 0.27,4.03 11.72,8.18 5.81,-12.1 7.21,-31.08 11.97,-47.75l42.1 -137.04c39.97,-120.74 124.29,-237.03 61.88,-369.06 -59.93,-126.77 -310.01,-114.35 -310.01,11.45 0,70.31 44.79,89.55 44.79,164.21 0,37.85 -34.4,89.57 -69.67,89.57l-29.85 0c-69.79,0 -119.42,-73.62 -119.42,-144.31 0,-129.18 22.09,-207.55 103.22,-299.85 95.64,-108.8 275.72,-126.93 403.73,-72.74 107.7,45.58 179.76,190.07 179.76,317.86 0,174.77 -32.76,234.09 -88.94,388.77l-37.36 96.99c-55,166.55 -31.76,175.34 10.88,331.29 39.65,145.01 35.55,318.21 -51.73,443.94 -68.05,98.05 -175,130.22 -191.12,152.22 160.83,0 147.46,13.03 264.49,-73.88 47.76,-35.47 165.95,-106.63 178.38,-160 25.81,0.58 29.23,7.05 46.9,17.79l82.44 46.93c222.69,114.82 399.28,218.93 681.76,218.93 194.74,0 325.75,-77.39 439.86,-182.15l18.62 -16.22c11.06,-10.48 17.47,-21.5 30.45,-34.24 71.1,-69.75 88.3,-180.1 88.3,-289.89 0,-97.12 -31.97,-217.92 -74.64,-298.57l-73.87 50.53c-25.54,18.77 -48.8,35.72 -77,52.38 -55.49,32.78 -104.62,63 -165.5,88.28 -61.4,25.5 -123.5,50.85 -189.92,63.86 -190.97,37.43 -356.63,39.38 -546.72,-8.18 -31.19,-7.8 -56.17,-15.88 -86.52,-22.95 63.53,-120.07 64.69,-267.36 64.69,-403.07 0,-187.58 -90.33,-446.05 -204.72,-601.4 -132.18,-179.49 -233.48,-274.57 -418.29,-397.8l-91.98 -57.3c-17.88,-9.93 -26.98,-15.42 -45.36,-24.3l-98.82 -50.46c-18.42,-9.29 -34.29,-14.86 -51.46,-23.19 -70.6,-34.25 -169.92,-63.45 -213.97,-84.59 0,-230.55 -78.34,-442.66 -175.08,-645.98 -28.44,-59.76 -64.9,-120.15 -104.99,-173.68 -29.27,-39.09 -32.92,-33.76 -42.77,-91.58 -12.88,-75.61 -48.84,-272.84 -78.46,-334.56 -14.27,-29.73 -31.68,-58.05 -49.51,-84.84 -42.66,-64.05 -140.76,-192.06 -225.93,-192.06 -4.61,55.43 -39.81,117.59 -39.81,243.83z"/>
   <path class="fil0" d="M1408.61 3214.57c0,115.22 -89.04,273.46 -140.27,382.22 -8.13,17.25 -18.93,36.69 -29.88,54.71 -8.63,14.2 -27.48,43.66 -28.9,60.67l124.4 0c14.81,-63.54 20.78,-169.18 154.26,-169.18 109.75,0 160.78,39.77 101.71,-46.98 -110.8,-162.69 41.31,-286.43 -126.59,-286.43l-54.74 4.98z"/>
  </g>
 </g>
</svg>
